PathFileType	4	(X/Y/Z)	C:\Users\86182\Documents\cortex\Trimmed_M4_L10.trc
DataRate	CameraRate	NumFrames	NumMarkers	Units	OrigDataRate	OrigDataStartFrame	OrigNumFrames
100.00	100.00	       99	2	mm	100.00	181	       901
Frame#	Time	gripper			box			
		X1	Y1	Z1	X2	Y2	Z2	

181	1.800	276.06442	149.30957	217.97452	278.90216	146.28148	82.86457	
182	1.810	276.04349	149.30101	218.38843	278.86874	146.27527	83.27431	
183	1.820	276.05725	149.28732	218.79308	278.84323	146.26657	83.68459	
184	1.830	276.10608	149.26830	219.19144	278.82388	146.25679	84.09717	
185	1.840	276.16461	149.24951	219.59319	278.81000	146.24742	84.51433	
186	1.850	276.20569	149.23781	220.00761	278.80316	146.24037	84.93762	
187	1.860	276.22165	149.23637	220.43814	278.80460	146.23737	85.36740	
188	1.870	276.21692	149.24463	220.88387	278.81229	146.23915	85.80312	
189	1.880	276.19458	149.26028	221.34239	278.82144	146.24643	86.24312	
190	1.890	276.16290	149.27951	221.80704	278.82730	146.26038	86.68524	
191	1.900	276.14389	149.29712	222.26508	278.82660	146.28090	87.12855	
192	1.910	276.15845	149.30940	222.70580	278.81778	146.30476	87.57347	
193	1.920	276.20428	149.31670	223.12991	278.80106	146.32700	88.01971	
194	1.930	276.25919	149.32153	223.54684	278.77789	146.34406	88.46413	
195	1.940	276.30505	149.32480	223.96326	278.74942	146.35501	88.90250	
196	1.950	276.33792	149.32603	224.37915	278.71570	146.36005	89.33326	
197	1.960	276.35513	149.32697	224.79472	278.67657	146.35873	89.75873	
198	1.970	276.34927	149.33107	225.21361	278.63254	146.35039	90.18301	
199	1.980	276.32440	149.33842	225.63551	278.58505	146.33569	90.60916	
200	1.990	276.30594	149.34407	226.05232	278.53613	146.31686	91.03784	
201	2.000	276.31876	149.34378	226.45732	278.48846	146.29662	91.46880	
202	2.010	276.35864	149.33998	226.85539	278.44485	146.27782	91.90303	
203	2.020	276.39890	149.33902	227.25874	278.40762	146.26387	92.34236	
204	2.030	276.42239	149.34425	227.67451	278.37888	146.25809	92.78683	
205	2.040	276.43088	149.35490	228.10175	278.35931	146.26172	93.23395	
206	2.050	276.42413	149.37144	228.53900	278.34531	146.27240	93.68037	
207	2.060	276.38922	149.39751	228.98880	278.32999	146.28610	94.12415	
208	2.070	276.31943	149.43433	229.45160	278.30826	146.30089	94.56459	
209	2.080	276.23126	149.47604	229.91913	278.27911	146.31735	95.00108	
210	2.090	276.14816	149.51416	230.38037	278.24350	146.33540	95.43251	
211	2.100	276.07181	149.54579	230.83357	278.20273	146.35237	95.85724	
212	2.110	275.98230	149.57509	231.28650	278.15918	146.36504	96.27355	
213	2.120	275.86621	149.60669	231.74429	278.11725	146.37279	96.68149	
214	2.130	275.73465	149.64026	232.20226	278.08105	146.37840	97.08379	
215	2.140	275.61261	149.67191	232.65211	278.05142	146.38550	97.48476	
216	2.150	275.51694	149.69908	233.09145	278.02643	146.39568	97.88851	
217	2.160	275.44931	149.72217	233.52399	278.00455	146.40784	98.29750	
218	2.170	275.41074	149.74121	233.95203	277.98709	146.41997	98.71230	
219	2.180	275.41278	149.75368	234.37242	277.97803	146.43079	99.13301	
220	2.190	275.46729	149.75742	234.78088	277.98059	146.44077	99.56100	
221	2.200	275.57028	149.75395	235.17841	277.99377	146.45218	99.99916	
222	2.210	275.70020	149.74789	235.57326	278.01242	146.46800	100.44952	
223	2.220	275.82874	149.74384	235.97675	278.03052	146.48985	100.90970	
224	2.230	275.92963	149.74553	236.39839	278.04514	146.51730	101.37310	
225	2.240	275.97852	149.75729	236.84532	278.05679	146.54865	101.83411	
226	2.250	275.96063	149.78256	237.31979	278.06583	146.58203	102.29195	
227	2.260	275.88455	149.81966	237.81372	278.06961	146.61632	102.74791	
228	2.270	275.77759	149.86229	238.31142	278.06540	146.65089	103.19997	
229	2.280	275.66125	149.90508	238.80156	278.05450	146.68468	103.64188	
230	2.290	275.53806	149.94733	239.28259	278.04254	146.71559	104.06741	
231	2.300	275.40604	149.98991	239.75568	278.03763	146.74121	104.47395	
232	2.310	275.27454	150.03085	240.21846	278.04935	146.76024	104.86198	
233	2.320	275.15771	150.06554	240.66812	278.08582	146.77310	105.23305	
234	2.330	275.06342	150.09006	241.10507	278.14890	146.78061	105.58803	
235	2.340	274.99207	150.10347	241.53299	278.23059	146.78265	105.92940	
236	2.350	274.93991	150.10687	241.95746	278.31003	146.77945	106.26855	
237	2.360	274.90060	150.10095	242.38345	278.35468	146.77376	106.62993	
238	2.370	274.86942	150.08531	242.81264	278.33719	146.76997	107.03906	
239	2.380	274.84671	150.06006	243.24423	278.25958	146.77057	107.50152	
240	2.390	274.83655	150.02762	243.67801	278.15262	146.77451	107.99865	
241	2.400	274.84225	149.99272	244.11409	278.04999	146.77904	108.50527	
242	2.410	274.86505	149.95969	244.55032	277.97244	146.78183	109.00462	
243	2.420	274.90582	149.92995	244.98293	277.92920	146.78204	109.48961	
244	2.430	274.96426	149.90271	245.40933	277.91989	146.78058	109.95941	
245	2.440	275.03323	149.87767	245.83026	277.93533	146.77901	110.41641	
246	2.450	275.09369	149.85696	246.25058	277.96234	146.77826	110.86247	
247	2.460	275.11981	149.84421	246.67763	277.98993	146.77827	111.29697	
248	2.470	275.09683	149.84035	247.11441	278.01270	146.77844	111.71940	
249	2.480	275.03345	149.84181	247.55624	278.02960	146.77844	112.13303	
250	2.490	274.95181	149.84435	247.99683	278.03992	146.77876	112.54332	
251	2.500	274.87100	149.84692	248.43315	278.04062	146.78015	112.95241	
252	2.510	274.80072	149.85085	248.86346	278.02841	146.78252	113.35793	
253	2.520	274.74307	149.85641	249.28561	278.00385	146.78459	113.75775	
254	2.530	274.69742	149.86246	249.69884	277.97153	146.78503	114.15422	
255	2.540	274.66409	149.86800	250.10548	277.93643	146.78377	114.55305	
256	2.550	274.64410	149.87282	250.51003	277.90152	146.78166	114.95949	
257	2.560	274.63669	149.87701	250.91704	277.86847	146.77933	115.37513	
258	2.570	274.63858	149.88084	251.32932	277.83948	146.77698	115.79768	
259	2.580	274.64551	149.88464	251.74759	277.81760	146.77524	116.22313	
260	2.590	274.65442	149.88858	252.17192	277.80493	146.77516	116.64964	
261	2.600	274.66534	149.89249	252.60271	277.80209	146.77753	117.07912	
262	2.610	274.67966	149.89613	253.04013	277.80841	146.78261	117.51375	
263	2.620	274.69617	149.89949	253.48257	277.82196	146.78987	117.95161	
264	2.630	274.71112	149.90286	253.92661	277.83951	146.79784	118.38782	
265	2.640	274.72235	149.90648	254.36887	277.85745	146.80513	118.81985	
266	2.650	274.73105	149.91052	254.80804	277.87335	146.81186	119.24928	
267	2.660	274.73962	149.91560	255.24438	277.88586	146.81900	119.67841	
268	2.670	274.74881	149.92276	255.67773	277.89276	146.82680	120.10732	
269	2.680	274.75726	149.93268	256.10684	277.88983	146.83444	120.53467	
270	2.690	274.76303	149.94511	256.53070	277.87357	146.84143	120.95979	
271	2.700	274.76566	149.95941	256.95004	277.84320	146.84843	121.38377	
272	2.710	274.76578	149.97443	257.36722	277.80145	146.85594	121.80869	
273	2.720	274.76450	149.98820	257.78427	277.75336	146.86276	122.23595	
274	2.730	274.76273	149.99908	258.20142	277.70367	146.86661	122.66451	
275	2.740	274.76025	150.00737	258.61823	277.65546	146.86578	123.09111	
276	2.750	274.75613	150.01472	259.03558	277.61072	146.85963	123.51379	
277	2.760	274.75174	150.02223	259.45544	277.57236	146.84877	123.93442	
278	2.770	274.75113	150.02953	259.87885	277.54495	146.83493	124.35754	
279	2.780	274.75732	150.03571	260.30548	277.53226	146.81982	124.78711	
